<?xml version="1.0" encoding="utf-8"?>
<!-- Generator: Adobe Illustrator 26.0.1, SVG Export Plug-In . SVG Version: 6.00 Build 0)  -->
<svg version="1.1" id="Layer_1" xmlns="http://www.w3.org/2000/svg" xmlns:xlink="http://www.w3.org/1999/xlink" x="0px" y="0px"
	 viewBox="0 0 403.9 114.6" style="enable-background:new 0 0 403.9 114.6;" xml:space="preserve">
<style type="text/css">
	.st0{fill:#FFFFFF;}
</style>
<rect x="208" class="st0" width="4" height="114.6"/>
<g>
	<path class="st0" d="M29,100.6H0V10.9h29v9h7.2v9h7.2v9h7.2v-9H58v-9h7.2v-9h29v89.7h-29V55.7H58v9h-7.2v9h-7.2v-9h-7.2v-9H29
		V100.6z"/>
	<path class="st0" d="M166.7,100.6h-65.2V10.9h43.5h7.2h14.5v9h7.2v9h7.2v53.8h-7.2v9h-7.2V100.6z M144.9,28.8h-14.5v53.8h14.5v-9
		h7.2V37.8h-7.2V28.8z"/>
</g>
<g>
	<path class="st0" d="M278.6,10.9v42.3h-9.8V42.6h-4.9v10.6H254V42.6h-4.9v10.6h-9.8V10.9h9.8v5.3h4.9v10.6h9.8V16.2h4.9v-5.3H278.6
		z"/>
	<path class="st0" d="M305,21.5v5.3h4.9v26.5h-24.6v-5.3h-4.9V37.4h4.9v-5.3h-4.9v-5.3h4.9v-5.3H305z M300.1,27h-9.8v4.9h9.8V27z
		 M300.1,37.6h-9.8v10.2h4.9v-5.1h4.9V37.6z"/>
	<path class="st0" d="M336.3,26.8h4.9v26.5h-9.8V26.8h-9.8v26.5h-9.8V21.5h24.6V26.8z"/>
	<path class="st0" d="M367.7,26.8h4.9v26.5h-9.8V26.8h-9.8v26.5H343V21.5h24.6V26.8z"/>
	<path class="st0" d="M403.9,21.5v10.6H399v10.6h-4.9v15.9h-4.9v5.3h-9.8v-5.3h4.9V42.6h-4.9V32.1h-4.9V21.5h9.8v10.6h9.8V21.5
		H403.9z"/>
	<path class="st0" d="M263.9,96.3v5.3h-24.6V59.2h24.6v5.3h4.9v5.3h4.9V91h-4.9v5.3H263.9z M249.1,96.3h9.7V91h4.9V69.8h-4.9v-5.3
		h-9.7V96.3z"/>
	<path class="st0" d="M343,59.2v5.3h4.9v5.3h4.9V91H348v5.3H343v5.3h-19.7v-5.3h-4.9V91h-4.9V69.8h4.9v-5.3h4.9v-5.3H343z
		 M337.9,64.5h-9.5v5.3h-4.9V91h4.9v5.3h9.5V91h4.9V69.8h-4.9V64.5z"/>
</g>
<path class="st0" d="M308.4,91V80.4h-4.9V64.5h-4.9v-5.3h-9.8v5.3h-4.9v15.9h-4.9V91h-4.9v10.6h9.8V91h19.7v10.6h9.8V91H308.4z
	 M298.3,85.7h-9.5v-5.3h2.5v-7.7h4.4v7.7h2.5V85.7z"/>
</svg>
