<svg id="Layer_1" data-name="Layer 1" xmlns="http://www.w3.org/2000/svg" viewBox="0 0 554.97 102.01"><defs><style>.cls-1{fill:#70bf44;}</style></defs><path class="cls-1" d="M31.47,34.65a6,6,0,0,1-4.53-4.22l7.28-11.94V41.81a5.74,5.74,0,0,1-4.65,5.39,7.75,7.75,0,0,0,7,.18,13.25,13.25,0,0,0,1.28,2,17.5,17.5,0,0,0,1.35-2,8,8,0,0,0,7-.24,5.74,5.74,0,0,1-4.65-5.45V27.92a5.77,5.77,0,0,1,4.65-5.45,7.83,7.83,0,0,0-4.65-.86v-14a5.71,5.71,0,0,1,4.65-5.38,7.6,7.6,0,0,0-7-.25,13.84,13.84,0,0,0-1.35-2,13,13,0,0,0-1.28,2,7.73,7.73,0,0,0-7,.25A5.73,5.73,0,0,1,34.1,6.73l-11,17.64-11-17.64a5.73,5.73,0,0,1,4.53-4.46,7.6,7.6,0,0,0-7-.25,14.74,14.74,0,0,0-1.34-2A18.52,18.52,0,0,0,7,2a7.73,7.73,0,0,0-7,.25A5.85,5.85,0,0,1,4.71,7.65v14A7.94,7.94,0,0,0,0,22.47a5.91,5.91,0,0,1,4.71,5.45V41.81A5.87,5.87,0,0,1,0,47.2a7.75,7.75,0,0,0,7,.18,18.7,18.7,0,0,0,1.29,2,19,19,0,0,0,1.34-2,8,8,0,0,0,7-.24A5.89,5.89,0,0,1,12,41.75V18.49l7.28,11.94a6,6,0,0,1-4.53,4.22,8.07,8.07,0,0,0,7.1.18,9.44,9.44,0,0,0,1.29,2,14.19,14.19,0,0,0,1.29-2A7.94,7.94,0,0,0,31.47,34.65Z"/><path class="cls-1" d="M56.32,47.38a20.4,20.4,0,0,0,1.28,2,14.13,14.13,0,0,0,1.35-2,7.81,7.81,0,0,0,7-.18A5.91,5.91,0,0,1,61.28,42l2.14-6.37H75.79L77.87,42a5.84,5.84,0,0,1-4.65,5.2,7.93,7.93,0,0,0,7,.18,13.37,13.37,0,0,0,1.28,2,9.44,9.44,0,0,0,1.29-2,7.87,7.87,0,0,0,7.1-.18c-3.55-1.53-4.29-3.92-5.33-6.86L80.44,27.85a5.86,5.86,0,0,1,4.71-5.38,7.84,7.84,0,0,0-6.61-.37L73.4,6.61a5.85,5.85,0,0,1,4.53-4.34,7.72,7.72,0,0,0-7-.25,10.09,10.09,0,0,0-1.29-2,12.3,12.3,0,0,0-1.28,2,7.85,7.85,0,0,0-7.1.25,5.86,5.86,0,0,1,4.59,4.34L60.67,22.1a7.85,7.85,0,0,0-6.62.37,5.87,5.87,0,0,1,4.66,5.38L54.6,40.34c-1,2.94-1.77,5.33-5.32,6.86A7.75,7.75,0,0,0,56.32,47.38ZM69.6,17.14l3.74,11.2H65.81Z"/><path class="cls-1" d="M93,47.2a7.75,7.75,0,0,0,7,.18,18.72,18.72,0,0,0,1.28,2,17.5,17.5,0,0,0,1.35-2,8,8,0,0,0,7-.24A5.88,5.88,0,0,1,105,41.75v-24l16.53,24.67a5.88,5.88,0,0,1-4.6,4.78,7.75,7.75,0,0,0,7,.18,18.7,18.7,0,0,0,1.29,2,17.5,17.5,0,0,0,1.35-2,8.15,8.15,0,0,0,7-.24,5.88,5.88,0,0,1-4.72-5.45V27.92a5.92,5.92,0,0,1,4.72-5.45,8.13,8.13,0,0,0-4.72-.86v-14a5.86,5.86,0,0,1,4.72-5.38,7.73,7.73,0,0,0-7-.25,13.84,13.84,0,0,0-1.35-2A18.52,18.52,0,0,0,124,2a7.73,7.73,0,0,0-7,.25,5.86,5.86,0,0,1,4.72,5.38V31.71L105.05,7a5.71,5.71,0,0,1,4.59-4.71,7.6,7.6,0,0,0-7-.25,13.84,13.84,0,0,0-1.35-2A18.53,18.53,0,0,0,100,2a7.73,7.73,0,0,0-7,.25A6,6,0,0,1,97.7,7.65v14a7.94,7.94,0,0,0-4.71.86,5.92,5.92,0,0,1,4.71,5.45V41.81A5.88,5.88,0,0,1,93,47.2Z"/><path class="cls-1" d="M136.7,47.2a7.75,7.75,0,0,0,7,.18,18.72,18.72,0,0,0,1.28,2,17.5,17.5,0,0,0,1.35-2,8,8,0,0,0,7-.24,5.88,5.88,0,0,1-4.65-5.45v-24l16.52,24.67a5.86,5.86,0,0,1-4.59,4.78,7.75,7.75,0,0,0,7,.18,18.7,18.7,0,0,0,1.29,2,17.5,17.5,0,0,0,1.35-2,8.15,8.15,0,0,0,7-.24,5.88,5.88,0,0,1-4.72-5.45V27.92a5.92,5.92,0,0,1,4.72-5.45,8.15,8.15,0,0,0-4.72-.86v-14a5.86,5.86,0,0,1,4.72-5.38,7.73,7.73,0,0,0-7-.25,13.84,13.84,0,0,0-1.35-2,18.52,18.52,0,0,0-1.29,2,7.73,7.73,0,0,0-7,.25,5.87,5.87,0,0,1,4.72,5.38V31.71L148.76,7a5.71,5.71,0,0,1,4.59-4.71,7.6,7.6,0,0,0-7-.25,13.84,13.84,0,0,0-1.35-2,18.53,18.53,0,0,0-1.28,2,7.73,7.73,0,0,0-7,.25,6,6,0,0,1,4.71,5.38v14a7.94,7.94,0,0,0-4.71.86,5.92,5.92,0,0,1,4.71,5.45V41.81A5.88,5.88,0,0,1,136.7,47.2Z"/><path class="cls-1" d="M213.34,2a9.21,9.21,0,0,0-1.28-2,13.88,13.88,0,0,0-1.29,2,7.72,7.72,0,0,0-7,.25,5.84,5.84,0,0,1,4.53,4.4l-8.14,13.47-8.2-13.47a5.81,5.81,0,0,1,4.52-4.4,7.58,7.58,0,0,0-7-.25,13.84,13.84,0,0,0-1.35-2,18.52,18.52,0,0,0-1.29,2,7.73,7.73,0,0,0-7,.25c2.57.91,4.9,4.46,6.37,6.85l7.65,12.61a12.22,12.22,0,0,0-2.08.74,5.91,5.91,0,0,1,4.71,5.45V41.81a5.87,5.87,0,0,1-4.71,5.39,7.87,7.87,0,0,0,7.1.18,12.54,12.54,0,0,0,1.29,2,9.89,9.89,0,0,0,1.28-2,7.93,7.93,0,0,0,7-.18,5.88,5.88,0,0,1-4.71-5.45V27.92a5.92,5.92,0,0,1,4.71-5.45,13.31,13.31,0,0,0-2-.74l7.66-12.61c1.4-2.39,3.73-5.94,6.36-6.85A7.85,7.85,0,0,0,213.34,2Z"/><path class="cls-1" d="M227.11,7.29a4.16,4.16,0,0,0,.92-.13,8.25,8.25,0,0,1-2.81,3.74c3.85,0,7.28-6.19,4.83-9.49A3.67,3.67,0,0,0,227.11,0a3.61,3.61,0,0,0-3.61,3.61A3.68,3.68,0,0,0,227.11,7.29Z"/><path class="cls-1" d="M238.19,21.61a6.78,6.78,0,0,0-2.57,4.59,8.92,8.92,0,0,1,6.86-1.1c4.53,2.57,9.85,3.67,12.67,7.84,2.33,3.3,0,7.53-3.73,8.75-4.47,1.47-11.7-.18-12.19-5.75A6.14,6.14,0,0,0,238,42.85a5.11,5.11,0,0,0-.8,6.55c1.47-1.71,3.68-1.16,5.45-.73,4.78,1.16,9.86,1.1,14-1.41,6.31-3.79,9.06-11.88,4.53-18.49-2.88-4.16-7.59-5.63-11.69-7.59-1.35-1.28-2.88-4.1-1.78-6.61a5.63,5.63,0,0,0-3.3,3.06,7.53,7.53,0,0,1-.92-1.1c-2.39-3.49.12-7.59,3.79-8.76,4.47-1.46,11.7.19,12.13,5.76a6,6,0,0,0,1.28-6.92,5.12,5.12,0,0,0,.8-6.55c-1.41,1.72-3.68,1.16-5.45.74a19.76,19.76,0,0,0-11,0c-7.1,2.32-11.33,9.67-9.18,16.46A13.1,13.1,0,0,0,238.19,21.61Z"/><path class="cls-1" d="M314.35,6.24a4.94,4.94,0,0,0-.19-6.18c-.49.8-1.59,1.23-3.85,1.23H287.47c-2.32,0-3.36-.43-3.85-1.23a4.87,4.87,0,0,0-.19,6.18,6.07,6.07,0,0,0,.19,7A5.86,5.86,0,0,1,289,8.57h6.25v13a8.05,8.05,0,0,0-4.72.86,5.92,5.92,0,0,1,4.72,5.45V41.81a5.88,5.88,0,0,1-4.72,5.39,7.75,7.75,0,0,0,7,.18,18.7,18.7,0,0,0,1.29,2,14.13,14.13,0,0,0,1.35-2,7.94,7.94,0,0,0,7-.18,5.9,5.9,0,0,1-4.72-5.45V27.92a5.93,5.93,0,0,1,4.72-5.45,8.13,8.13,0,0,0-4.72-.86v-13h6.19a5.92,5.92,0,0,1,5.44,4.71A6.07,6.07,0,0,0,314.35,6.24Z"/><path class="cls-1" d="M353.28,47.2c-3.55-1.53-4.28-3.92-5.32-6.86l-4.17-12.49a5.87,5.87,0,0,1,4.72-5.38,7.84,7.84,0,0,0-6.61-.37L336.75,6.61a5.86,5.86,0,0,1,4.53-4.34,7.72,7.72,0,0,0-7-.25,9.63,9.63,0,0,0-1.28-2,12.32,12.32,0,0,0-1.29,2,7.85,7.85,0,0,0-7.1.25,5.84,5.84,0,0,1,4.59,4.34L324,22.1a7.83,7.83,0,0,0-6.61.37,5.86,5.86,0,0,1,4.65,5.38L318,40.34c-1,2.94-1.78,5.33-5.33,6.86a7.75,7.75,0,0,0,7,.18,18.7,18.7,0,0,0,1.29,2,14.13,14.13,0,0,0,1.35-2,7.81,7.81,0,0,0,7-.18,5.92,5.92,0,0,1-4.66-5.2l2.15-6.37h12.36L341.22,42a5.83,5.83,0,0,1-4.65,5.2,7.93,7.93,0,0,0,7,.18,14.19,14.19,0,0,0,1.29,2,9.42,9.42,0,0,0,1.28-2A7.87,7.87,0,0,0,353.28,47.2ZM329.16,28.34l3.8-11.2,3.73,11.2Z"/><path class="cls-1" d="M367,49.4a15,15,0,0,0,1.34-2,7.94,7.94,0,0,0,7-.18,5.88,5.88,0,0,1-4.71-5.45V27.92a5.92,5.92,0,0,1,4.71-5.45,8.1,8.1,0,0,0-4.71-.86v-13h6.18a5.94,5.94,0,0,1,5.45,4.71,6.07,6.07,0,0,0,.18-7A4.94,4.94,0,0,0,382.3.06c-.49.8-1.59,1.23-3.86,1.23H355.61c-2.33,0-3.37-.43-3.86-1.23a4.87,4.87,0,0,0-.18,6.18,6.07,6.07,0,0,0,.18,7,5.88,5.88,0,0,1,5.39-4.71h6.24v13a8,8,0,0,0-4.71.86,5.91,5.91,0,0,1,4.71,5.45V41.81a5.87,5.87,0,0,1-4.71,5.39,7.75,7.75,0,0,0,7,.18A18.7,18.7,0,0,0,367,49.4Z"/><path class="cls-1" d="M388.42,13.28a5.88,5.88,0,0,1,5.39-4.71h6.24v13a8,8,0,0,0-4.71.86,5.92,5.92,0,0,1,4.71,5.45V41.81a5.88,5.88,0,0,1-4.71,5.39,7.75,7.75,0,0,0,7,.18,20.4,20.4,0,0,0,1.28,2,14.13,14.13,0,0,0,1.35-2,7.94,7.94,0,0,0,7-.18,5.88,5.88,0,0,1-4.71-5.45V27.92a5.92,5.92,0,0,1,4.71-5.45,8.1,8.1,0,0,0-4.71-.86v-13h6.18A5.94,5.94,0,0,1,419,13.28a6.07,6.07,0,0,0,.18-7A4.94,4.94,0,0,0,419,.06c-.49.8-1.59,1.23-3.86,1.23H392.28c-2.33,0-3.37-.43-3.86-1.23a4.87,4.87,0,0,0-.18,6.18A6.07,6.07,0,0,0,388.42,13.28Z"/><path class="cls-1" d="M443.27,25.53l2,11.14,2-11.14a3.13,3.13,0,0,1,2.27-2,4.74,4.74,0,0,0-2.39-.43l-1.84-10.35-1.84,10.35a4.68,4.68,0,0,0-2.38.43A3.11,3.11,0,0,1,443.27,25.53Z"/><path class="cls-1" d="M424.17,27.12c1,12.12,9.55,21.73,20.14,22.28h1.84c10.59-.55,19.16-10.16,20.14-22.28a5.89,5.89,0,0,1,4.59-4.65,8.31,8.31,0,0,0-4.65-.86C464.88,9.43,456,.06,445.23.06s-19.65,9.37-21,21.55a8.31,8.31,0,0,0-4.65.86A5.89,5.89,0,0,1,424.17,27.12Zm7.41-5.51c1.16-8.14,6.86-14.26,13.65-14.26s12.49,6.12,13.65,14.26a8.51,8.51,0,0,0-4.71.86,5.88,5.88,0,0,1,4.71,5.26c-1.1,7.84-6.3,13.84-12.73,14.33h-1.84c-6.43-.49-11.63-6.49-12.73-14.33a5.88,5.88,0,0,1,4.65-5.26A8.22,8.22,0,0,0,431.58,21.61Z"/><path class="cls-1" d="M496.71,25.53l2,11.14,2-11.14a3.13,3.13,0,0,1,2.27-2,4.72,4.72,0,0,0-2.39-.43l-1.84-10.35-1.83,10.35a4.72,4.72,0,0,0-2.39.43A3.09,3.09,0,0,1,496.71,25.53Z"/><path class="cls-1" d="M477.62,27.12c1,12.12,9.55,21.73,20.14,22.28h1.83c10.59-.55,19.16-10.16,20.14-22.28a5.91,5.91,0,0,1,4.59-4.65,8.3,8.3,0,0,0-4.65-.86C518.33,9.43,509.45.06,498.67.06s-19.65,9.37-21,21.55a8.34,8.34,0,0,0-4.66.86A5.91,5.91,0,0,1,477.62,27.12Zm7.4-5.51c1.17-8.14,6.86-14.26,13.65-14.26s12.49,6.12,13.66,14.26a8.53,8.53,0,0,0-4.72.86,5.89,5.89,0,0,1,4.72,5.26c-1.11,7.84-6.31,13.84-12.74,14.33h-1.83c-6.43-.49-11.64-6.49-12.74-14.33a5.9,5.9,0,0,1,4.65-5.26A8.2,8.2,0,0,0,485,21.61Z"/><path class="cls-1" d="M552.73,28.77c-2.88-4.16-7.59-5.63-11.69-7.59-1.35-1.28-2.88-4.1-1.78-6.61a5.63,5.63,0,0,0-3.3,3.06,7.53,7.53,0,0,1-.92-1.1c-2.39-3.49.12-7.59,3.79-8.76,4.47-1.46,11.7.19,12.12,5.76a6,6,0,0,0,1.29-6.92A5.14,5.14,0,0,0,553,.06c-1.41,1.72-3.68,1.16-5.45.74a19.76,19.76,0,0,0-11,0c-7.1,2.32-11.33,9.67-9.19,16.46a13.13,13.13,0,0,0,2.39,4.35,6.75,6.75,0,0,0-2.57,4.59,8.92,8.92,0,0,1,6.86-1.1c4.53,2.57,9.85,3.67,12.67,7.84,2.33,3.3,0,7.53-3.73,8.75-4.47,1.47-11.7-.18-12.19-5.75a6.14,6.14,0,0,0-1.28,6.91,5.11,5.11,0,0,0-.8,6.55c1.47-1.71,3.67-1.16,5.45-.73,4.78,1.16,9.86,1.1,14-1.41C554.5,43.47,557.26,35.38,552.73,28.77Z"/><path class="cls-1" d="M209.27,75.62a3.17,3.17,0,0,1-.89-3.32,2.86,2.86,0,0,0-1.66,1.53,3.81,3.81,0,0,1-.46-.55c-1.2-1.75.06-3.81,1.9-4.39,2.25-.74,5.87.09,6.08,2.89a3,3,0,0,0,.65-3.48,2.56,2.56,0,0,0,.4-3.28c-.71.86-1.84.58-2.73.37a9.91,9.91,0,0,0-5.53,0,6.75,6.75,0,0,0-4.61,8.26,6.29,6.29,0,0,0,1.2,2.18,3.36,3.36,0,0,0-1.29,2.3,4.52,4.52,0,0,1,3.44-.55c2.27,1.29,4.94,1.84,6.36,3.93,1.16,1.66,0,3.78-1.88,4.4-2.24.73-5.87-.1-6.11-2.89a3.09,3.09,0,0,0-.65,3.47,2.58,2.58,0,0,0-.4,3.29c.74-.86,1.85-.59,2.74-.37a9.29,9.29,0,0,0,7-.71,6.47,6.47,0,0,0,2.28-9.28C213.69,77.33,211.33,76.6,209.27,75.62Z"/><path class="cls-1" d="M226.32,66.12a3.86,3.86,0,0,0-3.51-.12,6.39,6.39,0,0,0-.67-1,8.33,8.33,0,0,0-.65,1,3.9,3.9,0,0,0-3.53.12,3,3,0,0,1,2.37,2.71v7a4,4,0,0,0-2.37.43A3,3,0,0,1,220.33,79v7a3,3,0,0,1-2.37,2.7,3.9,3.9,0,0,0,3.53.09,10.07,10.07,0,0,0,.65,1,9.43,9.43,0,0,0,.67-1,4.05,4.05,0,0,0,3.51-.12A3,3,0,0,1,224,85.94V79a3,3,0,0,1,2.34-2.73,4,4,0,0,0-2.34-.43v-7A3,3,0,0,1,226.32,66.12Z"/><path class="cls-1" d="M248.25,66.12a3.9,3.9,0,0,0-3.53-.12,7.17,7.17,0,0,0-.68-1,7.24,7.24,0,0,0-.64,1,3.92,3.92,0,0,0-3.54.12,3,3,0,0,1,2.37,2.71V80.9L233.9,68.49a2.89,2.89,0,0,1,2.31-2.37,3.84,3.84,0,0,0-3.5-.12,6.38,6.38,0,0,0-.68-1,8.33,8.33,0,0,0-.65,1,3.9,3.9,0,0,0-3.53.12,3,3,0,0,1,2.37,2.71v7a4,4,0,0,0-2.37.43A3,3,0,0,1,230.22,79v7a3,3,0,0,1-2.37,2.7,3.9,3.9,0,0,0,3.53.09,10.07,10.07,0,0,0,.65,1,9.43,9.43,0,0,0,.68-1,4,4,0,0,0,3.5-.12,3,3,0,0,1-2.34-2.73v-12l8.3,12.37a3,3,0,0,1-2.31,2.4,3.92,3.92,0,0,0,3.54.09,8.58,8.58,0,0,0,.64,1,11.24,11.24,0,0,0,.68-1,4.1,4.1,0,0,0,3.53-.12,3,3,0,0,1-2.37-2.73V79a3,3,0,0,1,2.37-2.73,4.1,4.1,0,0,0-2.37-.43v-7A3,3,0,0,1,248.25,66.12Z"/><path class="cls-1" d="M259.74,69.23c2.61-1.23,7.52-.1,7.71,3.34a3.88,3.88,0,0,0,.09-4.45,2.49,2.49,0,0,0-.09-3.1c-.25.4-.77.61-1.91.61a9.47,9.47,0,0,0-3.35-.61,9.82,9.82,0,0,0-7.28,3.35,13.29,13.29,0,0,0-3.25,7.46,4,4,0,0,0-2.34.46,2.9,2.9,0,0,1,2.31,2.3c.52,6.27,5,11.19,10.56,11.19a8.88,8.88,0,0,0,3.35-.65c1.14,0,1.66.25,1.91.65a2.5,2.5,0,0,0,.09-3.11,3.88,3.88,0,0,0-.09-4.45c-.19,3.44-5.1,4.58-7.71,3.35a8.53,8.53,0,0,1-4.4-6.67,2.91,2.91,0,0,1,2.34-2.61,4,4,0,0,0-2.34-.46C255.74,73.19,257.25,70.39,259.74,69.23Z"/><path class="cls-1" d="M283,69.29a3,3,0,0,1,2.73,2.36,3.05,3.05,0,0,0,.1-3.53,2.49,2.49,0,0,0-.1-3.1c-.24.4-.8.61-1.93.61h-7.25a4,4,0,0,0-1.66.37,5.75,5.75,0,0,0-.68-1,8.34,8.34,0,0,0-.64,1,3.9,3.9,0,0,0-3.53.12,2.94,2.94,0,0,1,2.36,2.71v7a4,4,0,0,0-2.36.43A3,3,0,0,1,272.42,79v7a2.94,2.94,0,0,1-2.36,2.7,3.89,3.89,0,0,0,3.53.09,10.09,10.09,0,0,0,.64,1,6.68,6.68,0,0,0,.68-1,3.18,3.18,0,0,0,1.66.37h7.25c1.13,0,1.69.25,1.93.65a2.5,2.5,0,0,0,.1-3.11,3,3,0,0,0-.1-3.53A2.92,2.92,0,0,1,283,85.48h-6.94V79.21h3.13a3,3,0,0,1,2.7,2.36A3.78,3.78,0,0,0,282,78a8.08,8.08,0,0,0,1-.64,7.55,7.55,0,0,0-1-.68,3.81,3.81,0,0,0-.13-3.5,2.94,2.94,0,0,1-2.7,2.33h-3.13V69.29Z"/><path class="cls-1" d="M311.77,83.14A2.92,2.92,0,0,1,309,85.48h-7.13V83c0-2,2.52-3.35,4-4.06,1.91-.86,4-1.63,5.29-3.56A6.46,6.46,0,0,0,309,66.09a9.11,9.11,0,0,0-7-.7c-.89.21-2,.49-2.73-.37a2.57,2.57,0,0,0,.4,3.28,3,3,0,0,0,.64,3.48c.25-2.8,3.87-3.63,6.08-2.92,1.88.61,3,2.73,1.91,4.42a9.52,9.52,0,0,1-4.18,2.86,10.85,10.85,0,0,0-4.91,3.65,5.67,5.67,0,0,0-.9,3.35V86a2.94,2.94,0,0,1-2.36,2.7,4,4,0,0,0,3.53.09,6.62,6.62,0,0,0,.65,1,7.52,7.52,0,0,0,.67-1,3.13,3.13,0,0,0,1.66.37h7.43c1.14,0,1.69.25,1.94.65a2.49,2.49,0,0,0,.09-3.11A3,3,0,0,0,311.77,83.14Z"/><path class="cls-1" d="M322.18,65.05h-1a7.11,7.11,0,0,0-6.61,7.09V82.68a7.12,7.12,0,0,0,6.61,7.1h1a7.12,7.12,0,0,0,6.61-7.1V72.14A7.11,7.11,0,0,0,322.18,65.05Zm2.95,17.63a3.45,3.45,0,0,1-5.16,3,3.42,3.42,0,0,1-1.78-3V72.14A3.53,3.53,0,0,1,320.25,69a3.59,3.59,0,0,1,3.07.12,3.51,3.51,0,0,1,1.81,3Z"/><path class="cls-1" d="M345.13,83.14a2.92,2.92,0,0,1-2.74,2.34h-7.12V83c0-2,2.52-3.35,4.05-4.06,1.91-.86,4-1.63,5.29-3.56a6.46,6.46,0,0,0-2.28-9.25,9.12,9.12,0,0,0-7-.7c-.89.21-2,.49-2.73-.37A2.56,2.56,0,0,0,333,68.3a3.05,3.05,0,0,0,.65,3.48c.25-2.8,3.87-3.63,6.08-2.92,1.87.61,3,2.73,1.91,4.42a9.52,9.52,0,0,1-4.18,2.86,10.88,10.88,0,0,0-4.92,3.65,5.73,5.73,0,0,0-.89,3.35V86a2.94,2.94,0,0,1-2.36,2.7,4,4,0,0,0,3.53.09,6,6,0,0,0,.65,1,7.52,7.52,0,0,0,.67-1,3.11,3.11,0,0,0,1.66.37h7.43c1.14,0,1.69.25,1.94.65a2.5,2.5,0,0,0,.09-3.11A3,3,0,0,0,345.13,83.14Z"/><path class="cls-1" d="M353.3,86V67.57c0-1.17.21-1.72.61-1.94a2.45,2.45,0,0,0-3.1-.12,3,3,0,0,0-3.53.12,2.94,2.94,0,0,1,2.36,2.71V86a2.94,2.94,0,0,1-2.36,2.7,3.81,3.81,0,0,0,3.53.09,10.07,10.07,0,0,0,.65,1,9.43,9.43,0,0,0,.67-1,4,4,0,0,0,3.5-.12A2.94,2.94,0,0,1,353.3,86Z"/><path class="cls-1" d="M534.87,74.56c-.36,0-.67-.41-.67-.92,0-1.08-3.76-5-5.2-5.51a6.38,6.38,0,0,1-2-1.33,5.67,5.67,0,0,0-2.52-1.29c-.83-.2-1.6-.62-1.75-1a1.36,1.36,0,0,0-1.19-.72,4.46,4.46,0,0,1-2-.67c-1.34-.92-5.35-1.9-7.66-1.9-1,0-1.85-.26-2-.62-.25-.77-10.39-.77-11.36,0a8.47,8.47,0,0,1-2.93.78c-5.4.66-7.92,1.49-17.49,5.86a38.61,38.61,0,0,0-7.2,4.27,10,10,0,0,1-2.16,1.18c-1.08.51-2,1.13-2,1.39a.52.52,0,0,1-.56.51,6.54,6.54,0,0,0-2.21,1.29,6.71,6.71,0,0,1-2.27,1.29.7.7,0,0,0-.61.77.74.74,0,0,1-.67.77,9.9,9.9,0,0,0-2.73,1.9c-3.65,3.34-6.17,3.81-14.09,2.47a164.07,164.07,0,0,0-20.83-2.37c-9.87-.61-48.08-.46-48.08.16,0,.26-.52.41-1.14.41s-.92-.15-.77-.36,0-.72-.41-1.18c-.72-.83-.56-.93,2.11-1.19A9.47,9.47,0,0,0,378,77.7a3.23,3.23,0,0,1,1.95-.56c2.21,0,7.61-1.55,11.26-3.19,5.35-2.42,9-4.22,9.26-4.58a10.69,10.69,0,0,1,2.83-1.18,18,18,0,0,0,3.08-1.34,53.24,53.24,0,0,1,5.66-2.06c9.16-2.93,21.71-2.78,28.55.41a22.48,22.48,0,0,1,3.08,1.65,9.79,9.79,0,0,0,3.86,2.06c1.95,0-1.65-5.56-4.53-7a12,12,0,0,1-2.31-1.49,2.9,2.9,0,0,0-1.9-.72,1.59,1.59,0,0,1-1.44-.72c-.47-1.18-12.25-2.16-16.05-1.34a29.53,29.53,0,0,1-4.58.57,6.84,6.84,0,0,0-3.14.82,3.91,3.91,0,0,1-2.26.67c-1.18,0-1.59.26-1.59.87,0,.77-.11.83-.52.16-.25-.41-.51-.52-.51-.21s-.77.72-1.65.88c-4,.72-5,1-5.6,1.69a2.2,2.2,0,0,1-1.55.72c-.56,0-1,.21-1,.52a.57.57,0,0,1-.57.51,31.88,31.88,0,0,0-4.88,2.06,29.43,29.43,0,0,1-5,2.06,2.44,2.44,0,0,0-1.44.66,5.61,5.61,0,0,1-2.63,1.08c-1,.21-1.9.57-1.9.83s-.67.51-1.49.51-1.7.21-1.85.52a2.66,2.66,0,0,1-1.75.51c-2.32,0-4.68.62-4.37,1.08.15.26-1.24.46-3.09.46-2.88,0-3.39.16-3.39.88s-.11.82-.52.15-.51-.56-.51.36c0,.67.25,1.19.51,1.19s.52,1.59.52,3.8c0,2.42.25,4,.66,4.32s3.14.57,6.33.57c6.38,0,8.23.56,11,3.19a57.82,57.82,0,0,0,8.33,5.6c.67.31,1.95,1,2.88,1.54a42.39,42.39,0,0,0,11.72,4.38c7.31,1.64,23.66.92,27.83-1.24A34.53,34.53,0,0,1,439.16,98a10.05,10.05,0,0,0,3.24-1.34,1.32,1.32,0,0,1,1-.52c.93,0,5.82-2.93,7.1-4.21s3.7-1.13,10.18,1.18c16.77,5.91,20.94,7.1,29,8.18,4.53.61,14.71.61,17.74,0,5.56-1.08,7.41-1.6,7.72-2a3.3,3.3,0,0,1,1.64-.82c1.65-.41,3.76-2.52,3.24-3.29s-2.36-.67-3.49.2a12.66,12.66,0,0,1-4.27,1,10.12,10.12,0,0,0-3.6.82c-.46.83-14.76.57-17.18-.3a16,16,0,0,0-4.47-.78c-1.29,0-2.16-.2-2-.46s-.56-.67-1.64-.82a30.11,30.11,0,0,1-3.24-.77c-.72-.21-3.6-1-6.43-1.8a46.07,46.07,0,0,1-6.59-2.11,6.57,6.57,0,0,0-2.26-.72,2.63,2.63,0,0,1-1.49-.77,3.85,3.85,0,0,0-2.26-.77,1.9,1.9,0,0,1-1.75-.83c-.46-1.18-.36-1.75.26-1.75s5.24-3.13,5.5-3.75a1.09,1.09,0,0,1,.92-.36c.42,0,.72-.15.72-.41a6.42,6.42,0,0,1,2-1.65c1-.72,2-1.44,2.16-1.59a31.29,31.29,0,0,1,3.5-2,11.44,11.44,0,0,0,3.18-2c0-.21,1.75-1.14,3.86-2.11a16.94,16.94,0,0,0,3.86-2.11c0-.36,6.43-2.32,10.54-3.14a60.69,60.69,0,0,1,9-.31c11.73.41,20.68,4.27,30,13l1.59,1.5.16-1.39C536.87,77.34,535.74,74.56,534.87,74.56ZM442.4,91a1.26,1.26,0,0,0-1,.52,1.62,1.62,0,0,1-1.29.51,2.76,2.76,0,0,0-1.64.67,12.6,12.6,0,0,1-4,1.44,11.64,11.64,0,0,0-4,1.39c-1,1.08-19.54,1-22.16,0a26.23,26.23,0,0,0-6.38-2,1.28,1.28,0,0,1-1-.41,10.85,10.85,0,0,0-3-1.8c-9-4.27-10-5.86-4-6.12,7.35-.31,28,0,34.56.62,11.67,1,16.71,1.8,16.71,2.78C445.22,89.43,443.37,91,442.4,91Z"/><path class="cls-1" d="M188.31,74.64c0-.25-2.37-.56-5.25-.67-3.6-.1-5.3-.36-5.45-.82a1,1,0,0,0-.87-.62,7.5,7.5,0,0,1-2.73-2c-1.8-1.85-9.46-6.22-10.85-6.22a.53.53,0,0,1-.57-.47c0-.25-.51-.67-1.13-.87a5.44,5.44,0,0,1-1.85-1,2.54,2.54,0,0,0-1.65-.72,1.77,1.77,0,0,1-1.28-.51,2.13,2.13,0,0,0-1.49-.52,7.12,7.12,0,0,1-2.68-.77c-2.21-1.13-22.94-1.13-24.07,0a4.24,4.24,0,0,1-2.57.77,3.36,3.36,0,0,0-2.06.46,6.24,6.24,0,0,1-2.36.78c-1.13.15-2.06.56-2.06.82s-.56.51-1.28.51-1.29.31-1.29.67a.75.75,0,0,1-.77.72c-1.54,0-4.89,1.39-4.89,2.06a.63.63,0,0,1-.61.67A4.19,4.19,0,0,0,108.8,68c-1.24,1.13-4.32,1.85-4.32,1,0-.25-.88-.61-1.91-.82a21.12,21.12,0,0,1-4-1.28c-2.72-1.29-8.48-3-8.48-2.58,0,.16-.26-.1-.57-.61A1.9,1.9,0,0,0,88,62.76a1.21,1.21,0,0,1-1.13-.56c-.26-.83-4-2-6.38-2-1.34,0-2.26-.26-2.42-.72s-1.54-.77-4-.92a12.07,12.07,0,0,1-4.27-.88c-.66-.67-13-.72-15.53-.05-.82.21-1.18.46-.77.51s-.72.31-2.57.52-3.39.62-3.5,1-.77.56-1.44.56-1.23.21-1.23.52-.36.51-.82.51c-.83,0-3.3,2-3.3,2.67s3.5.42,6-.46c3.65-1.34,22-1.34,27.16,0,2,.52,4.62,1.13,5.91,1.44a27.94,27.94,0,0,1,4,1.29,7.51,7.51,0,0,0,2.42.72c.46,0,.82.15.82.41s.77.67,1.7,1.08,2.57,1.13,3.7,1.59a31.19,31.19,0,0,0,4.89,1.6c3,.72,4.83,2,4.21,2.83a8.66,8.66,0,0,1-2.67,1.23A7,7,0,0,0,96.15,77a14.55,14.55,0,0,1-2.73,2.11c-1.29.77-2.31,1.75-2.31,2.05a.75.75,0,0,1-.78.67c-.41,0-.77.21-.77.52s-.31.51-.67.51A4,4,0,0,0,87,84.36a4.81,4.81,0,0,1-2.16,1.55c-.51,0-.93.2-.93.46s-.56.62-1.28.77-1.29.57-1.29.82-.36.52-.77.52a11.93,11.93,0,0,0-3.34,1.28,12.56,12.56,0,0,1-3.29,1.29,2.28,2.28,0,0,0-1.44.72c-.77.77-2.42,1-11,1.85-8.12.72-13.93.16-18.61-1.85a7.81,7.81,0,0,0-2.37-.72,1.49,1.49,0,0,1-1.13-.51,1.28,1.28,0,0,0-1-.52c-.77,0-8.33-4.94-10.24-6.68-3.24-3-4-3.6-4.47-3.35-.77.52-.57,1.34,1.18,4.07C28,88.89,30.93,91.31,37.77,94.6c6.43,3,9.31,3.7,17.95,4,6.69.26,8.08.15,12.34-.87,8.23-2,18.36-6.28,19.6-8.28a1.88,1.88,0,0,1,1.23-1A5.57,5.57,0,0,0,91,87.19a7.06,7.06,0,0,1,2-1.28,6.47,6.47,0,0,0,2-1.44c1.75-1.6,9-7.2,10.8-8.33,1.08-.67,1.91-.62,7.56.41,12.29,2.31,32.82,3.39,54.72,3,15.18-.31,17.7-.26,17.7.41,0,.82-1,1.29-3.86,1.9-5.56,1.14-6.69,1.44-6.84,2-.1.31-.82.56-1.65.56a7.62,7.62,0,0,0-2.93.78,33.7,33.7,0,0,1-3.86,1.59A5.43,5.43,0,0,0,164.14,88c0,.25-.42.46-.93.46a4.09,4.09,0,0,0-2,.77,3.8,3.8,0,0,1-1.86.77c-.51,0-.92.21-.92.52s-.57.51-1.24.51a2.13,2.13,0,0,0-1.59.51,13.08,13.08,0,0,1-3.34,1.6,9.05,9.05,0,0,0-3.09,1.54c0,.26-.67.46-1.49.46a10.13,10.13,0,0,0-3,.57c-6.69,2.62-20.27,2.67-23.35.1a3.06,3.06,0,0,0-1.65-.67c-1.08,0-6-3-6-3.65,0-.25-.56-.46-1.28-.46s-1.29.31-1.29.62c0,.72,3.91,4.88,6.74,7.2,4.53,3.8,19.44,4.21,29.83.92a129.07,129.07,0,0,0,12.55-4.88c1.44-.62,3.75-1.6,5.14-2.11A28,28,0,0,0,169.54,91a6.57,6.57,0,0,1,2.21-.93,7.49,7.49,0,0,0,2.31-.72,39.34,39.34,0,0,1,9.88-3.08,51.56,51.56,0,0,1,6.17-.93l2-.15.16-5,.15-5h-2.11C189.23,75.11,188.31,74.9,188.31,74.64Zm-19.34,0c-.15.26-7.56.47-17.07.47-12.81,0-17.8-.21-20.83-.78a47.75,47.75,0,0,0-7-.77,8.3,8.3,0,0,1-3.44-.51,11.7,11.7,0,0,0-4.22-.88c-3.24-.25-3.55-.41-3.09-1.18s4.17-2.67,8-4a18.67,18.67,0,0,0,3-1.28c2.31-1.8,22.32-2.42,27.26-.83A10,10,0,0,1,154.16,66a1.77,1.77,0,0,0,1.08.36,22,22,0,0,1,5.81,2.52c.26.36,2.57,1.49,5.71,2.83C168.61,72.53,169.54,73.72,169,74.64Z"/></svg>